<svg id="Capa_1" enable-background="new 0 0 506.221 506.221" height="512" viewBox="0 0 506.221 506.221" width="512" xmlns="http://www.w3.org/2000/svg"><g><path d="m500.786 451.897-35.422 6.525c-8.117 1.486-15.937-3.898-17.446-12.013l-23.64-128.336c30.045-16.885 44.36-69.528 43.659-159.983-.551-71.017-10.195-139.071-10.605-141.933l-2.216-15.451-202.238 37.252.022.098-202.063-37.104-2.206 15.452c-.409 2.862-10.016 70.922-10.527 141.939-.651 90.455 13.694 143.09 43.748 159.958l-23.564 128.326c-.724 3.941-2.938 7.364-6.236 9.639-3.275 2.259-7.227 3.115-11.14 2.421l-35.494-6.518-5.418 29.507 129.829 23.84 5.418-29.507-35.408-6.502c-8.132-1.493-13.533-9.321-12.046-17.452l23.565-128.332c34.086-5.094 66.198-49.202 97.724-133.984 24.752-66.566 39.952-133.599 40.586-136.42l3.334-14.812 3.312 14.676c.637 2.821 15.873 69.845 40.662 136.396 31.577 84.774 63.708 128.861 97.799 133.931l23.634 128.308c.727 3.94-.126 7.927-2.398 11.227-2.268 3.292-5.679 5.505-9.607 6.237l-35.433 6.526 5.435 29.504 129.816-23.912z"/></g></svg>